<svg id="e9da1354-16d3-4156-a907-155116d7f7b2" data-name="Layer 1" xmlns="http://www.w3.org/2000/svg" viewBox="0 0 555.49 82.59" preserveAspectRatio="xMidYMin"><title>elicitation-logotype</title><path d="M56.46,25.11H23V37.39H50.15V56.1H23V68.94H56.46V87.65H4.32V6.51L56.46,6.4Z" transform="translate(-3.82 -5.56)" style="fill:#212121;stroke:#212121;stroke-miterlimit:10"/><path d="M107.82,87.65H59.44V6.29H78.15V68.94h29.67Z" transform="translate(-3.82 -5.56)" style="fill:#212121;stroke:#212121;stroke-miterlimit:10"/><path d="M128.63,87.65H109.92V6.29h18.71Z" transform="translate(-3.82 -5.56)" style="fill:#212121;stroke:#212121;stroke-miterlimit:10"/><path d="M171.47,87.54a41.6,41.6,0,0,1-15.33-2.93,39.11,39.11,0,0,1-13.45-8.91,41.24,41.24,0,0,1-8.8-13.23,41.53,41.53,0,0,1,0-31.22,40,40,0,0,1,8.8-13.12,39.66,39.66,0,0,1,13.51-9,41.22,41.22,0,0,1,15.33-3,40.8,40.8,0,0,1,15.28,3,39.81,39.81,0,0,1,13.45,9L187.08,31.3a21.21,21.21,0,0,0-7.31-4.82,22.6,22.6,0,0,0-8.3-1.61,22.17,22.17,0,0,0-8.25,1.61A21.3,21.3,0,0,0,156,31.3a23.07,23.07,0,0,0-4.76,7.2,21.66,21.66,0,0,0-1.66,8.41,21.24,21.24,0,0,0,1.66,8.36A23.24,23.24,0,0,0,156,62.41a21.28,21.28,0,0,0,7.25,4.82,22.15,22.15,0,0,0,8.25,1.6,22.58,22.58,0,0,0,8.3-1.6,21.18,21.18,0,0,0,7.31-4.82l13.17,13.28a39.25,39.25,0,0,1-13.39,8.91A41.47,41.47,0,0,1,171.47,87.54Z" transform="translate(-3.82 -5.56)" style="fill:#212121;stroke:#212121;stroke-miterlimit:10"/><path d="M221.18,87.65H202.47V6.29h18.71Z" transform="translate(-3.82 -5.56)" style="fill:#212121;stroke:#212121;stroke-miterlimit:10"/><path d="M274.42,6.06V24.77H258.81V87.65H240.11V24.77h-15.5V6.06Z" transform="translate(-3.82 -5.56)" style="fill:#212121;stroke:#212121;stroke-miterlimit:10"/><path d="M320,87.65l-3.21-9.85H291.25l-3.32,9.85H268.11L295.79,6.4H313.5l26.24,81.25ZM297.67,59.09h13.17l-6.42-19.7Z" transform="translate(-3.82 -5.56)" style="fill:#212121;stroke:#212121;stroke-miterlimit:10"/><path d="M383,6.06V24.77H367.41V87.65H348.7V24.77H333.2V6.06Z" transform="translate(-3.82 -5.56)" style="fill:#212121;stroke:#212121;stroke-miterlimit:10"/><path d="M405.27,87.65H386.56V6.29h18.71Z" transform="translate(-3.82 -5.56)" style="fill:#212121;stroke:#212121;stroke-miterlimit:10"/><path d="M449.16,6.29A39.33,39.33,0,0,1,465,9.5a41.78,41.78,0,0,1,12.93,8.69,40.72,40.72,0,0,1,8.73,12.9,39.47,39.47,0,0,1,3.21,15.83,39.45,39.45,0,0,1-3.21,15.83,40.7,40.7,0,0,1-8.73,12.9A41.74,41.74,0,0,1,465,84.33a40.52,40.52,0,0,1-31.62,0,40.62,40.62,0,0,1-21.56-21.59,39.45,39.45,0,0,1-3.21-15.83,39.47,39.47,0,0,1,3.21-15.83A40.62,40.62,0,0,1,433.35,9.5,39.33,39.33,0,0,1,449.16,6.29Zm.06,62.55a21.29,21.29,0,0,0,8.52-1.72,22,22,0,0,0,11.68-11.68,22,22,0,0,0,0-17,22.05,22.05,0,0,0-11.68-11.68,22,22,0,0,0-17,0A22.05,22.05,0,0,0,429,38.39a22,22,0,0,0,0,17,22,22,0,0,0,11.68,11.68A21.29,21.29,0,0,0,449.22,68.83Z" transform="translate(-3.82 -5.56)" style="fill:#212121;stroke:#212121;stroke-miterlimit:10"/><path d="M540.1,6.4h18.71V87.65H538.55L512,40.27V87.65H493.27v-81h20.37L540.1,53.89Z" transform="translate(-3.82 -5.56)" style="fill:#212121;stroke:#212121;stroke-miterlimit:10"/></svg>
