<?xml version="1.0" encoding="utf-8"?>
<!-- Generator: Adobe Illustrator 21.1.0, SVG Export Plug-In . SVG Version: 6.00 Build 0)  -->
<svg version="1.1" id="Layer_1" xmlns="http://www.w3.org/2000/svg" xmlns:xlink="http://www.w3.org/1999/xlink" x="0px" y="0px"
	 viewBox="0 0 566.9 93.8" style="enable-background:new 0 0 566.9 93.8;" xml:space="preserve">
<style type="text/css">
	.st0{fill:#231F20;}
</style>
<g>
	<path class="st0" d="M52,30.7H21.2v11.3h25v17.2h-25v11.8H52v17.2H4V13.6l48-0.1V30.7z"/>
	<path class="st0" d="M105.4,88.3H60.9V13.4h17.2v57.7h27.3V88.3z"/>
	<path class="st0" d="M129.7,88.3h-17.2V13.4h17.2V88.3z"/>
	<path class="st0" d="M172.2,88.2c-4.8,0-9.5-0.9-14.1-2.7c-4.6-1.8-8.7-4.5-12.4-8.2c-3.5-3.6-6.2-7.7-8.1-12.2
		c-1.9-4.5-2.8-9.3-2.8-14.3c0-5.1,0.9-9.9,2.8-14.4c1.9-4.5,4.6-8.5,8.1-12.1c3.7-3.7,7.8-6.4,12.4-8.3c4.6-1.8,9.3-2.8,14.1-2.8
		c4.8,0,9.5,0.9,14.1,2.8c4.6,1.8,8.7,4.6,12.4,8.3l-12.1,12.1c-2-2-4.2-3.4-6.7-4.4c-2.5-1-5.1-1.5-7.6-1.5c-2.6,0-5.1,0.5-7.6,1.5
		c-2.5,1-4.7,2.5-6.7,4.4c-1.9,2-3.4,4.2-4.4,6.6s-1.5,5-1.5,7.7c0,2.7,0.5,5.3,1.5,7.7c1,2.4,2.5,4.6,4.4,6.6c2,2,4.2,3.5,6.7,4.4
		c2.5,1,5,1.5,7.6,1.5c2.6,0,5.1-0.5,7.6-1.5c2.5-1,4.8-2.5,6.7-4.4l12.1,12.2c-3.7,3.7-7.8,6.4-12.3,8.2
		C181.8,87.3,177.1,88.2,172.2,88.2z"/>
	<path class="st0" d="M221,88.3h-17.2V13.4H221V88.3z"/>
	<path class="st0" d="M274.1,13.2v17.2h-14.4v57.9h-17.2V30.4h-14.3V13.2H274.1z"/>
	<path class="st0" d="M324.3,88.3l-3-9.1h-23.6l-3.1,9.1h-18.2L302,13.5h16.3l24.2,74.8H324.3z M303.7,62h12.1l-5.9-18.1L303.7,62z"
		/>
	<path class="st0" d="M390.5,13.2v17.2h-14.4v57.9h-17.2V30.4h-14.3V13.2H390.5z"/>
	<path class="st0" d="M415,88.3h-17.2V13.4H415V88.3z"/>
	<path class="st0" d="M457.5,13.4c5.2,0,10,1,14.6,3c4.5,2,8.5,4.6,11.9,8c3.4,3.4,6.1,7.3,8,11.9c2,4.6,3,9.4,3,14.6
		c0,5.2-1,10-3,14.6c-2,4.6-4.7,8.5-8,11.9c-3.4,3.4-7.4,6-11.9,8c-4.5,2-9.4,3-14.6,3c-5.2,0-10-1-14.6-3c-4.5-2-8.5-4.6-11.9-8
		c-3.4-3.4-6-7.3-8-11.9c-2-4.6-3-9.4-3-14.6c0-5.2,1-10,3-14.6c2-4.6,4.6-8.5,8-11.9c3.4-3.4,7.3-6,11.9-8
		C447.5,14.4,452.4,13.4,457.5,13.4z M457.6,71c2.8,0,5.4-0.5,7.8-1.6c2.4-1.1,4.6-2.5,6.4-4.3c1.8-1.8,3.3-4,4.3-6.4
		c1.1-2.4,1.6-5.1,1.6-7.9c0-2.8-0.5-5.4-1.6-7.9c-1.1-2.4-2.5-4.6-4.3-6.4c-1.8-1.8-4-3.3-6.4-4.3c-2.4-1.1-5.1-1.6-7.8-1.6
		c-2.8,0-5.4,0.5-7.9,1.6c-2.4,1.1-4.6,2.5-6.4,4.3c-1.8,1.8-3.3,4-4.3,6.4c-1.1,2.4-1.6,5.1-1.6,7.9c0,2.8,0.5,5.4,1.6,7.9
		c1.1,2.4,2.5,4.6,4.3,6.4s4,3.3,6.4,4.3C452.2,70.5,454.8,71,457.6,71z"/>
	<path class="st0" d="M543.3,13.5h17.2v74.8h-18.7l-24.5-43.6v43.6h-17.2V13.7h18.8l24.4,43.5V13.5z"/>
</g>
</svg>
