<?xml version="1.0" encoding="utf-8"?>
<!-- Generator: Adobe Illustrator 21.1.0, SVG Export Plug-In . SVG Version: 6.00 Build 0)  -->
<svg version="1.1" id="Layer_1" xmlns="http://www.w3.org/2000/svg" xmlns:xlink="http://www.w3.org/1999/xlink" x="0px" y="0px"
	 viewBox="0 0 566.9 93.8" style="enable-background:new 0 0 566.9 93.8;" xml:space="preserve">
<style type="text/css">
	.st0{fill:#626B2E;}
</style>
<g>
	<path class="st0" d="M56.5,25.1H23v12.3h27.1v18.7H23v12.8h33.4v18.7H4.3V6.5l52.1-0.1V25.1z"/>
	<path class="st0" d="M107.8,87.7H59.4V6.3h18.7v62.7h29.7V87.7z"/>
	<path class="st0" d="M128.6,87.7h-18.7V6.3h18.7V87.7z"/>
	<path class="st0" d="M171.5,87.5c-5.2,0-10.4-1-15.3-2.9c-5-2-9.5-4.9-13.5-8.9c-3.8-3.9-6.8-8.3-8.8-13.2c-2-4.9-3-10.1-3-15.6
		c0-5.5,1-10.8,3-15.7c2-4.9,5-9.3,8.8-13.1c4-4,8.5-7,13.5-9c5-2,10.1-3,15.3-3c5.2,0,10.3,1,15.3,3s9.5,5,13.4,9l-13.2,13.2
		c-2.1-2.1-4.6-3.7-7.3-4.8c-2.7-1.1-5.5-1.6-8.3-1.6c-2.8,0-5.6,0.5-8.2,1.6c-2.7,1.1-5.1,2.7-7.3,4.8c-2.1,2.1-3.7,4.5-4.8,7.2
		s-1.7,5.5-1.7,8.4c0,3,0.6,5.7,1.7,8.4c1.1,2.6,2.7,5,4.8,7.1c2.1,2.1,4.6,3.7,7.3,4.8c2.7,1.1,5.4,1.6,8.2,1.6
		c2.8,0,5.6-0.5,8.3-1.6c2.7-1.1,5.2-2.7,7.3-4.8l13.2,13.3c-4,4-8.5,7-13.4,8.9C181.9,86.6,176.8,87.5,171.5,87.5z"/>
	<path class="st0" d="M221.2,87.7h-18.7V6.3h18.7V87.7z"/>
	<path class="st0" d="M272.2,6.1v18.7h-15.6v62.9h-18.7V24.8h-15.5V6.1H272.2z"/>
	<path class="st0" d="M317.8,87.7l-3.2-9.9H289l-3.3,9.9h-19.8l27.7-81.3h17.7l26.2,81.3H317.8z M295.5,59.1h13.2l-6.4-19.7
		L295.5,59.1z"/>
	<path class="st0" d="M380.8,6.1v18.7h-15.6v62.9h-18.7V24.8H331V6.1H380.8z"/>
	<path class="st0" d="M403.1,87.7h-18.7V6.3h18.7V87.7z"/>
	<path class="st0" d="M445.8,6.3c5.6,0,10.9,1.1,15.8,3.2c4.9,2.1,9.3,5,12.9,8.7c3.7,3.7,6.6,8,8.7,12.9c2.1,4.9,3.2,10.2,3.2,15.8
		c0,5.6-1.1,10.9-3.2,15.8c-2.1,4.9-5,9.2-8.7,12.9c-3.7,3.7-8,6.5-12.9,8.7c-4.9,2.1-10.2,3.2-15.8,3.2S435,86.5,430,84.3
		c-4.9-2.1-9.2-5-12.9-8.7c-3.6-3.7-6.5-8-8.7-12.9c-2.1-4.9-3.2-10.2-3.2-15.8c0-5.6,1.1-10.9,3.2-15.8c2.1-4.9,5-9.2,8.7-12.9
		c3.6-3.7,7.9-6.5,12.9-8.7C435,7.4,440.2,6.3,445.8,6.3z M445.9,68.8c3,0,5.9-0.6,8.5-1.7c2.7-1.1,5-2.7,7-4.7c2-2,3.6-4.3,4.7-7
		c1.1-2.7,1.7-5.5,1.7-8.5c0-3-0.6-5.9-1.7-8.5c-1.1-2.7-2.7-5-4.7-7c-2-2-4.3-3.6-7-4.7c-2.7-1.1-5.5-1.7-8.5-1.7
		c-3,0-5.9,0.6-8.5,1.7c-2.7,1.1-5,2.7-7,4.7c-2,2-3.6,4.3-4.7,7c-1.1,2.7-1.7,5.5-1.7,8.5c0,3,0.6,5.9,1.7,8.5c1.1,2.7,2.7,5,4.7,7
		c2,2,4.3,3.6,7,4.7C440,68.3,442.9,68.8,445.9,68.8z"/>
	<path class="st0" d="M535.7,6.4h18.7v81.3h-20.3l-26.6-47.4v47.4h-18.7v-81h20.4l26.5,47.3V6.4z"/>
</g>
</svg>
